<svg width="508" height="508" viewBox="0 0 508 508" fill="none" xmlns="http://www.w3.org/2000/svg">
<rect x="1.5" y="1.5" width="505" height="505" rx="252.5" fill="url(#paint0_linear_2054_174)"/>
<rect x="1.5" y="1.5" width="505" height="505" rx="252.5" stroke="#FF00FF" stroke-width="3"/>
<path d="M313.13 114C322.269 114 330.358 115.419 337.397 118.258C344.437 121.096 350.364 125.478 355.181 131.401C360.12 137.202 363.825 144.668 366.295 153.801C368.765 162.933 370 173.793 370 186.381V307.106C370.228 309.592 370.343 312.122 370.343 314.696C370.343 329.812 366.528 343.778 358.896 356.593C351.49 369.244 340.604 379.759 326.239 388.138C311.875 396.517 294.368 401.774 273.719 403.91C283.37 405.389 292.235 407.606 300.315 410.563C308.396 413.685 316.7 416.479 325.229 418.943C333.983 421.572 343.859 422.887 354.856 422.887C364.058 422.887 372.25 421.9 379.433 419.929C386.839 418.121 393.349 415.821 398.96 413.028L403 416.232C396.94 420.997 389.421 425.433 380.443 429.54C371.69 433.812 359.681 435.948 344.419 435.948C334.992 435.948 325.678 434.551 316.476 431.758C307.498 429.129 298.407 426.09 289.205 422.64C280.003 419.189 270.576 416.067 260.925 413.274C251.274 410.646 241.285 409.332 230.961 409.332C227.37 409.332 223.779 409.578 220.188 410.071C216.821 410.564 213.566 411.222 210.424 412.043L208.741 407.113C210.537 406.456 213.118 405.8 216.484 405.143C219.851 404.65 224.34 404.156 229.951 403.663C209.975 401.199 192.805 395.778 178.44 387.398C164.076 378.855 153.078 368.34 145.447 355.854C138.382 344.292 134.589 331.674 134.065 318H134V117.702H164.75L165.594 135.85C170.618 129.764 176.512 124.888 183.274 121.22C192.043 116.407 202.231 114 213.84 114C221.496 114 228.597 115.357 235.143 118.072C241.811 120.664 247.616 124.799 252.556 130.476C255.652 134.034 258.312 138.223 260.535 143.043C261.246 141.918 261.982 140.814 262.744 139.731C268.425 131.833 275.465 125.6 283.862 121.034C292.26 116.345 302.016 114 313.13 114ZM250.825 233.616C231.298 233.616 215.026 237.231 202.008 244.46C188.99 251.525 179.226 261.301 172.717 273.787C167.95 283.258 164.993 293.722 163.842 305.178L163.603 318H163.302C163.517 333.304 166.88 347.072 173.391 359.304C180.348 371.79 190.561 381.648 204.027 388.877C217.494 395.942 233.992 399.474 253.519 399.474C273.269 399.474 289.542 395.942 302.335 388.877C315.353 381.648 325.005 371.79 331.289 359.304C337.798 346.653 341.053 332.359 341.053 316.422C341.053 300.485 337.574 286.274 330.616 273.787C323.883 261.301 313.782 251.525 300.315 244.46C287.073 237.231 270.576 233.616 250.825 233.616ZM303.127 142.878C297.446 142.878 292.383 144.174 287.938 146.766C283.615 149.357 279.972 152.937 277.008 157.503C274.044 161.946 271.76 167.067 270.154 172.867C269.273 176.317 268.655 179.898 268.298 183.61C268.3 183.916 268.302 184.223 268.302 184.53V228.626C285.673 230.022 301.058 233.573 314.456 239.284C323.86 243.156 332.124 247.82 339.25 253.27L337.212 186.011C337.212 174.78 335.792 166.08 332.951 159.909C330.234 153.615 326.344 149.234 321.281 146.766C316.218 144.174 310.166 142.878 303.127 142.878ZM201.429 142.878C193.402 142.878 186.671 144.668 181.237 148.247C175.927 151.826 171.666 156.763 168.455 163.057C167.725 164.544 167.045 166.085 166.412 167.676L164.825 252.58C171.518 247.425 179.198 242.993 187.867 239.284C201.607 233.353 217.489 229.75 235.514 228.474V186.196C235.514 175.706 234.093 167.314 231.253 161.02C228.536 154.726 224.645 150.16 219.582 147.321C214.519 144.36 208.468 142.878 201.429 142.878Z" fill="white"/>
<defs>
<linearGradient id="paint0_linear_2054_174" x1="254" y1="0" x2="254" y2="508" gradientUnits="userSpaceOnUse">
<stop stop-color="#FF00E1"/>
<stop offset="1" stop-color="#C800FF"/>
</linearGradient>
</defs>
</svg>
