<svg width="84" height="84" viewBox="0 0 84 84" fill="none" xmlns="http://www.w3.org/2000/svg">
<rect width="84" height="84" rx="42" fill="url(#paint0_linear_3_2185)"/>
<path d="M56.6406 17.625C58.4349 17.625 60.0649 18.066 61.5303 18.9482C63.0106 19.8155 64.1845 20.9894 65.0518 22.4697C65.934 23.9351 66.375 25.5651 66.375 27.3594C66.375 29.1537 65.9339 30.7912 65.0518 32.2715C64.1845 33.7368 63.0105 34.9107 61.5303 35.793C60.0649 36.6602 58.4349 37.0937 56.6406 37.0938H51.4814V46.1113H56.6406C58.4349 46.1114 60.0649 46.5524 61.5303 47.4346C63.0106 48.3168 64.1845 49.4982 65.0518 50.9785C65.9339 52.4588 66.375 54.0963 66.375 55.8906C66.375 57.67 65.934 59.3 65.0518 60.7803C64.1845 62.2606 63.0106 63.442 61.5303 64.3242C60.0649 65.1915 58.4349 65.625 56.6406 65.625C54.8463 65.625 53.2088 65.1914 51.7285 64.3242C50.2632 63.442 49.0893 62.2605 48.207 60.7803C47.3398 59.3 46.9063 57.67 46.9062 55.8906V50.6865H37.8887V55.8906C37.8886 57.67 37.4476 59.3 36.5654 60.7803C35.6832 62.2606 34.5018 63.442 33.0215 64.3242C31.5412 65.1914 29.9037 65.625 28.1094 65.625C26.33 65.625 24.7 65.1915 23.2197 64.3242C21.7394 63.442 20.558 62.2606 19.6758 60.7803C18.8085 59.3 18.375 57.67 18.375 55.8906C18.375 54.0963 18.8086 52.4588 19.6758 50.9785C20.558 49.4982 21.7394 48.3168 23.2197 47.4346C24.7 46.5524 26.33 46.1114 28.1094 46.1113H33.3135V37.0938H25.375L30.375 32.5186H33.3135H35.875H36.875H37.8887H46.9062V27.3594C46.9063 25.5651 47.3398 23.9351 48.207 22.4697C49.0893 20.9895 50.2632 19.8155 51.7285 18.9482C53.2088 18.0661 54.8463 17.625 56.6406 17.625ZM28.1094 50.6865C27.1675 50.6866 26.3002 50.9259 25.5078 51.4043C24.7304 51.8677 24.11 52.4958 23.6465 53.2881C23.1829 54.0657 22.9512 54.9336 22.9512 55.8906C22.9512 56.8326 23.183 57.6997 23.6465 58.4922C24.11 59.2697 24.7303 59.89 25.5078 60.3535C26.3003 60.817 27.1674 61.0488 28.1094 61.0488C29.0664 61.0488 29.9343 60.8171 30.7119 60.3535C31.5042 59.89 32.1323 59.2696 32.5957 58.4922C33.0741 57.6998 33.3134 56.8325 33.3135 55.8906V50.6865H28.1094ZM51.4814 55.8906C51.4815 56.8325 51.7058 57.6998 52.1543 58.4922C52.6178 59.2698 53.239 59.89 54.0166 60.3535C54.8091 60.817 55.6837 61.0488 56.6406 61.0488C57.5976 61.0488 58.4647 60.817 59.2422 60.3535C60.0197 59.89 60.64 59.2697 61.1035 58.4922C61.567 57.6997 61.7988 56.8326 61.7988 55.8906C61.7988 54.9336 61.5671 54.0657 61.1035 53.2881C60.64 52.4958 60.0196 51.8677 59.2422 51.4043C58.4647 50.9259 57.5975 50.6866 56.6406 50.6865H51.4814V55.8906ZM37.8887 46.1113H46.9062V37.0938H37.8887V46.1113ZM56.6406 22.2012C55.6837 22.2012 54.8091 22.433 54.0166 22.8965C53.239 23.36 52.6178 23.9802 52.1543 24.7578C51.7058 25.5353 51.4815 26.4025 51.4814 27.3594V32.5186H56.6406C57.5975 32.5185 58.4647 32.2942 59.2422 31.8457C60.0198 31.3822 60.64 30.761 61.1035 29.9834C61.567 29.1909 61.7988 28.3163 61.7988 27.3594C61.7988 26.4024 61.567 25.5353 61.1035 24.7578C60.64 23.9803 60.0197 23.36 59.2422 22.8965C58.4647 22.433 57.5976 22.2012 56.6406 22.2012Z" fill="white"/>
<defs>
<linearGradient id="paint0_linear_3_2185" x1="14" y1="11.5" x2="73" y2="70.5" gradientUnits="userSpaceOnUse">
<stop stop-color="#7C3AED"/>
<stop offset="1" stop-color="#D946EF"/>
</linearGradient>
</defs>
</svg>
