<svg width="84" height="84" viewBox="0 0 84 84" fill="none" xmlns="http://www.w3.org/2000/svg">
<rect width="84" height="84" rx="42" fill="url(#paint0_linear_1_12)"/>
<path d="M55.2656 14C57.0599 14 58.6899 14.441 60.1553 15.3232C61.6356 16.1905 62.8095 17.3644 63.6768 18.8447C64.559 20.3101 65 21.9401 65 23.7344C65 25.5287 64.5589 27.1662 63.6768 28.6465C62.8095 30.1118 61.6355 31.2857 60.1553 32.168C58.6899 33.0352 57.0599 33.4687 55.2656 33.4688H50.1064V42.4863H55.2656C57.0599 42.4864 58.6899 42.9274 60.1553 43.8096C61.6356 44.6918 62.8095 45.8732 63.6768 47.3535C64.5589 48.8338 65 50.4713 65 52.2656C65 54.045 64.559 55.675 63.6768 57.1553C62.8095 58.6356 61.6356 59.817 60.1553 60.6992C58.6899 61.5665 57.0599 62 55.2656 62C53.4713 62 51.8338 61.5664 50.3535 60.6992C48.8882 59.817 47.7143 58.6355 46.832 57.1553C45.9648 55.675 45.5313 54.045 45.5312 52.2656V47.0615H36.5137V52.2656C36.5136 54.045 36.0726 55.675 35.1904 57.1553C34.3082 58.6356 33.1268 59.817 31.6465 60.6992C30.1662 61.5664 28.5287 62 26.7344 62C24.955 62 23.325 61.5665 21.8447 60.6992C20.3644 59.817 19.183 58.6356 18.3008 57.1553C17.4335 55.675 17 54.045 17 52.2656C17 50.4713 17.4336 48.8338 18.3008 47.3535C19.183 45.8732 20.3644 44.6918 21.8447 43.8096C23.325 42.9274 24.955 42.4864 26.7344 42.4863H31.9385V33.4688H24L29 28.8936H31.9385H34.5H35.5H36.5137H45.5312V23.7344C45.5313 21.9401 45.9648 20.3101 46.832 18.8447C47.7143 17.3645 48.8882 16.1905 50.3535 15.3232C51.8338 14.4411 53.4713 14 55.2656 14ZM26.7344 47.0615C25.7925 47.0616 24.9252 47.3009 24.1328 47.7793C23.3554 48.2427 22.735 48.8708 22.2715 49.6631C21.8079 50.4407 21.5762 51.3086 21.5762 52.2656C21.5762 53.2076 21.808 54.0747 22.2715 54.8672C22.735 55.6447 23.3553 56.265 24.1328 56.7285C24.9253 57.192 25.7924 57.4238 26.7344 57.4238C27.6914 57.4238 28.5593 57.1921 29.3369 56.7285C30.1292 56.265 30.7573 55.6446 31.2207 54.8672C31.6991 54.0748 31.9384 53.2075 31.9385 52.2656V47.0615H26.7344ZM50.1064 52.2656C50.1065 53.2075 50.3308 54.0748 50.7793 54.8672C51.2428 55.6448 51.864 56.265 52.6416 56.7285C53.4341 57.192 54.3087 57.4238 55.2656 57.4238C56.2226 57.4238 57.0897 57.192 57.8672 56.7285C58.6447 56.265 59.265 55.6447 59.7285 54.8672C60.192 54.0747 60.4238 53.2076 60.4238 52.2656C60.4238 51.3086 60.1921 50.4407 59.7285 49.6631C59.265 48.8708 58.6446 48.2427 57.8672 47.7793C57.0897 47.3009 56.2225 47.0616 55.2656 47.0615H50.1064V52.2656ZM36.5137 42.4863H45.5312V33.4688H36.5137V42.4863ZM55.2656 18.5762C54.3087 18.5762 53.4341 18.808 52.6416 19.2715C51.864 19.735 51.2428 20.3552 50.7793 21.1328C50.3308 21.9103 50.1065 22.7775 50.1064 23.7344V28.8936H55.2656C56.2225 28.8935 57.0897 28.6692 57.8672 28.2207C58.6448 27.7572 59.265 27.136 59.7285 26.3584C60.192 25.5659 60.4238 24.6913 60.4238 23.7344C60.4238 22.7774 60.192 21.9103 59.7285 21.1328C59.265 20.3553 58.6447 19.735 57.8672 19.2715C57.0897 18.808 56.2226 18.5762 55.2656 18.5762Z" fill="white"/>
<defs>
<linearGradient id="paint0_linear_1_12" x1="14" y1="11.5" x2="73" y2="70.5" gradientUnits="userSpaceOnUse">
<stop stop-color="#E300E6"/>
<stop offset="0.552885" stop-color="#FF009E"/>
<stop offset="1" stop-color="#B40003"/>
</linearGradient>
</defs>
</svg>
